<svg viewBox="0 0 1040 600" xmlns="http://www.w3.org/2000/svg" role="img"
     aria-label="A blueprint side elevation of a hull. The keelson beam is the harness; three brass frames rise from it, bolted on, each labeled as a keelson-rib package. A midship section inset shows one rib bolted to the keelson.">
  <defs>
    <style>
      .lbl  { font-family: "Cascadia Code","SF Mono",ui-monospace,Menlo,monospace; }
      .navy { fill:#1e3a5f; }
      .slate{ fill:#64748b; }
      .brass{ fill:#8a5a1f; }
    </style>
    <marker id="ah" markerWidth="8" markerHeight="8" refX="6" refY="3" orient="auto">
      <path d="M0,0 L6,3 L0,6 Z" fill="#1e3a5f"/>
    </marker>
  </defs>

  <!-- waterline -->
  <line x1="150" y1="356" x2="950" y2="356" stroke="#1e3a5f" stroke-width="1"
        stroke-dasharray="7 6" stroke-opacity="0.38"/>
  <text class="lbl slate" x="946" y="349" font-size="10" fill-opacity="0.7" text-anchor="end">design waterline</text>

  <!-- light frames (ribs of the hull), keel to bulwark -->
  <g stroke="#2f6fb0" stroke-width="1" stroke-opacity="0.5">
    <line x1="232" y1="445" x2="232" y2="320"/>
    <line x1="390" y1="452" x2="390" y2="338"/>
    <line x1="450" y1="453" x2="450" y2="340"/>
    <line x1="570" y1="452" x2="570" y2="341"/>
    <line x1="630" y1="451" x2="630" y2="340"/>
    <line x1="748" y1="448" x2="748" y2="331"/>
    <line x1="806" y1="445" x2="806" y2="307"/>
  </g>

  <!-- hull: stem raked forward, sheer dipping amidships, cruiser stern -->
  <path d="M 180 294
           C 272 312, 430 330, 545 330
           C 662 330, 775 312, 830 289
           C 858 278, 888 268, 910 256
           C 908 296, 902 336, 896 372
           C 890 406, 876 432, 838 442
           C 640 452, 400 454, 214 446
           C 202 436, 194 414, 191 380
           C 188 356, 180 334, 172 318
           C 168 308, 171 299, 180 294 Z"
        fill="#1e3a5f" fill-opacity="0.05" stroke="#1e3a5f" stroke-width="2.2"
        stroke-linejoin="round"/>

  <!-- bulwark band under the cap rail -->
  <path d="M 185 307 C 274 324, 432 342, 546 342 C 660 342, 766 324, 820 301 C 850 289, 878 279, 900 268"
        fill="none" stroke="#1e3a5f" stroke-width="1" stroke-opacity="0.45"/>

  <!-- plank seams below the waterline -->
  <g fill="none" stroke="#1e3a5f" stroke-width="1" stroke-opacity="0.14">
    <path d="M 210 396 C 420 410, 650 408, 876 388"/>
    <path d="M 216 424 C 420 436, 650 434, 862 416"/>
  </g>

  <!-- bow flash: three stripes, one for each rib aboard -->
  <g fill="none" stroke="#2f6fb0" stroke-width="4.5" stroke-opacity="0.55" stroke-linecap="round">
    <path d="M 808 312 C 832 306, 854 297, 870 286"/>
    <path d="M 814 328 C 838 322, 860 313, 876 302"/>
    <path d="M 820 344 C 844 338, 866 329, 882 318"/>
  </g>

  <!-- draft marks on the stem -->
  <g stroke="#64748b" stroke-width="1" stroke-opacity="0.6">
    <line x1="888" y1="382" x2="896" y2="382"/>
    <line x1="886" y1="400" x2="894" y2="400"/>
    <line x1="878" y1="418" x2="886" y2="418"/>
    <line x1="852" y1="436" x2="860" y2="436"/>
  </g>
  <g class="lbl" fill="#64748b" fill-opacity="0.65" font-size="8">
    <text x="900" y="385">16</text>
    <text x="898" y="403">14</text>
    <text x="890" y="421">12</text>
    <text x="864" y="439">10</text>
  </g>

  <!-- registration on the bow flank: her port is 7878 -->
  <text class="lbl slate" x="706" y="347" font-size="11" fill-opacity="0.55" letter-spacing="1">KL-1-7878</text>

  <!-- superstructure: wheelhouse, foremast, and rigging drawn dashed, still on the ways -->
  <g stroke="#1e3a5f" stroke-width="1.4" stroke-dasharray="4 3" fill="#1e3a5f" fill-opacity="0.04" stroke-linejoin="round">
    <path d="M 368 328 L 368 311 Q 368 307 372 307 L 468 307 Q 472 307 472 311 L 472 331" fill="none"/>
    <circle cx="386" cy="317" r="3" stroke-dasharray="2 2" fill="none"/>
    <circle cx="454" cy="317" r="3" stroke-dasharray="2 2" fill="none"/>
    <rect x="398" y="283" width="62" height="24" rx="2"/>
    <line x1="394" y1="283" x2="466" y2="283"/>
    <line x1="404" y1="291" x2="454" y2="291" stroke-dasharray="3 2"/>
    <line x1="430" y1="283" x2="430" y2="258" stroke-dasharray="3 2"/>
    <rect x="424" y="252" width="12" height="5" rx="2.5" stroke-dasharray="2 2"/>
  </g>
  <g stroke="#1e3a5f" fill="none" stroke-linecap="round">
    <line x1="618" y1="330" x2="618" y2="192" stroke-width="1.4" stroke-dasharray="4 3" stroke-opacity="0.85"/>
    <line x1="600" y1="214" x2="636" y2="214" stroke-width="1.4" stroke-dasharray="4 3" stroke-opacity="0.85"/>
    <line x1="618" y1="192" x2="900" y2="262" stroke-width="1" stroke-dasharray="2 3" stroke-opacity="0.55"/>
    <line x1="618" y1="192" x2="462" y2="283" stroke-width="1" stroke-dasharray="2 3" stroke-opacity="0.55"/>
  </g>

  <!-- keelson beam: the harness, along the keel -->
  <line x1="216" y1="420" x2="848" y2="420" stroke="#1e3a5f" stroke-width="6"
        stroke-linecap="round"/>

  <!-- callout leaders at annotation weight: each stops at its frame head -->
  <g stroke="#b5803a" stroke-width="1.1" stroke-opacity="0.5">
    <line x1="330" y1="152" x2="330" y2="317"/>
    <line x1="510" y1="152" x2="510" y2="330"/>
    <line x1="690" y1="152" x2="690" y2="322"/>
  </g>

  <!-- three ribs as drawn frames: floor flared on the keelson, head at the sheer -->
  <g fill="#b5803a" fill-opacity="0.16" stroke="#b5803a" stroke-width="1.5" stroke-linejoin="round">
    <path d="M 324.5 419 C 326 398, 326.8 370, 326.8 344 L 326.8 325
             Q 326.8 319.6 330 319 Q 333.2 319.6 333.2 325 L 333.2 344
             C 333.2 370, 334 398, 335.5 419 Z"/>
    <path d="M 504.5 419 C 506 402, 506.8 378, 506.8 352 L 506.8 338
             Q 506.8 332.6 510 332 Q 513.2 332.6 513.2 338 L 513.2 352
             C 513.2 378, 514 402, 515.5 419 Z"/>
    <path d="M 684.5 419 C 686 401, 686.8 375, 686.8 348 L 686.8 330
             Q 686.8 324.6 690 324 Q 693.2 324.6 693.2 330 L 693.2 348
             C 693.2 375, 694 398, 695.5 419 Z"/>
  </g>
  <!-- futtock scarfs where the frame timbers join -->
  <g stroke="#8a5a1f" stroke-width="0.9" stroke-opacity="0.55">
    <line x1="326.8" y1="390" x2="333.2" y2="386.5"/>
    <line x1="326.8" y1="352" x2="333.2" y2="348.5"/>
    <line x1="506.8" y1="394" x2="513.2" y2="390.5"/>
    <line x1="506.8" y1="359" x2="513.2" y2="355.5"/>
    <line x1="686.8" y1="392" x2="693.2" y2="388.5"/>
    <line x1="686.8" y1="354" x2="693.2" y2="350.5"/>
  </g>
  <!-- bolts where each rib fastens to the beam -->
  <g fill="#b5803a" stroke="#8a5a1f">
    <circle cx="330" cy="420" r="5"/>
    <circle cx="510" cy="420" r="5"/>
    <circle cx="690" cy="420" r="5"/>
  </g>

  <!-- rib callout boxes -->
  <g>
    <rect x="250" y="104" width="160" height="46" rx="6" fill="#fff7ec" stroke="#b5803a" stroke-width="1.6"/>
    <text class="lbl navy"  x="330" y="124" font-size="13" text-anchor="middle">@keelson/rib-data</text>
    <text class="lbl brass" x="330" y="141" font-size="12" text-anchor="middle">&#8594; a data platform</text>

    <rect x="430" y="104" width="160" height="46" rx="6" fill="#fff7ec" stroke="#b5803a" stroke-width="1.6"/>
    <text class="lbl navy"  x="510" y="124" font-size="13" text-anchor="middle">@keelson/rib-issues</text>
    <text class="lbl brass" x="510" y="141" font-size="12" text-anchor="middle">&#8594; an issue tracker</text>

    <rect x="610" y="104" width="160" height="46" rx="6" fill="#fff7ec" stroke="#b5803a" stroke-width="1.6"/>
    <text class="lbl navy"  x="690" y="124" font-size="13" text-anchor="middle">@keelson/rib-deploy</text>
    <text class="lbl brass" x="690" y="141" font-size="12" text-anchor="middle">&#8594; a cluster CLI</text>
  </g>

  <!-- midship section: the rib's true shape, and the bolt that fastens it -->
  <g>
    <text class="lbl navy" x="951" y="82" font-size="11" letter-spacing="2" text-anchor="middle">MIDSHIP SECTION</text>
    <line x1="884" y1="126" x2="1018" y2="126" stroke="#1e3a5f" stroke-width="1"
          stroke-dasharray="7 6" stroke-opacity="0.22"/>
    <path d="M 897 100 C 896 128, 900 148, 914 162 C 928 174, 946 178, 951 178
             C 956 178, 974 174, 988 162 C 1002 148, 1006 128, 1005 100"
          fill="#1e3a5f" fill-opacity="0.04" stroke="#1e3a5f" stroke-width="1.8" stroke-linecap="round"/>
    <line x1="892" y1="100" x2="902" y2="100" stroke="#1e3a5f" stroke-width="1.6"/>
    <line x1="1000" y1="100" x2="1010" y2="100" stroke="#1e3a5f" stroke-width="1.6"/>
    <line x1="902" y1="103" x2="1000" y2="103" stroke="#1e3a5f" stroke-width="1.1" stroke-opacity="0.3"/>
    <path d="M 902.5 103 C 901.5 128, 905.5 145, 918.5 158 C 930.5 169, 946 172.5, 951 172.5
             C 956 172.5, 971.5 169, 983.5 158 C 996.5 145, 1000.5 128, 999.5 103"
          fill="none" stroke="#b5803a" stroke-width="4.2" stroke-opacity="0.9" stroke-linecap="round"/>
    <rect x="938.5" y="163.5" width="25" height="7" rx="1.2" fill="#1e3a5f"/>
    <circle cx="951" cy="167" r="2.4" fill="#b5803a" stroke="#8a5a1f" stroke-width="0.8"/>
    <line x1="1000" y1="140" x2="1008" y2="140" stroke="#8a5a1f" stroke-width="0.9" stroke-opacity="0.7"/>
    <text class="lbl brass" x="1010.5" y="143" font-size="10">rib</text>
    <line x1="940" y1="169" x2="925" y2="184" stroke="#1e3a5f" stroke-width="0.9" stroke-opacity="0.6"/>
    <text class="lbl navy" x="922" y="188" font-size="10" text-anchor="end">keelson</text>
    <text class="lbl slate" x="951" y="203" font-size="10" text-anchor="middle" fill-opacity="0.85">a rib, bolted to the keelson</text>
  </g>

  <!-- browser SPA: the visible surface -->
  <g>
    <rect x="22" y="252" width="104" height="30" rx="5" fill="#eaf1f8" stroke="#1e3a5f" stroke-width="1.4"/>
    <text class="lbl navy" x="74" y="272" font-size="13" text-anchor="middle">browser SPA</text>
    <line x1="126" y1="267" x2="196" y2="303" stroke="#1e3a5f" stroke-width="1.4" marker-end="url(#ah)"/>
    <text class="lbl slate" x="138" y="282" font-size="10">HTTP / WS</text>
  </g>

  <!-- propeller in the aperture -->
  <g stroke="#1e3a5f" stroke-width="1.3" fill="#1e3a5f" fill-opacity="0.08">
    <ellipse cx="188" cy="411" rx="2.5" ry="7.5" transform="rotate(12 188 411)"/>
    <ellipse cx="188" cy="429" rx="2.5" ry="7.5" transform="rotate(12 188 429)"/>
    <circle cx="188" cy="420" r="2.2" fill-opacity="0.5"/>
  </g>

  <!-- keelson CLI: the rudder that steers the harness -->
  <g>
    <line x1="186" y1="366" x2="178" y2="382" stroke="#1e3a5f" stroke-width="1"/>
    <path d="M 166 380 L 182 382 L 175 452 L 151 445 Z" fill="#1e3a5f" fill-opacity="0.1"
          stroke="#1e3a5f" stroke-width="1.6" stroke-linejoin="round"/>
    <line x1="155" y1="484" x2="163" y2="450" stroke="#1e3a5f" stroke-width="1" stroke-opacity="0.6"/>
    <text class="lbl navy"  x="150" y="500" font-size="13" text-anchor="middle">keelson CLI</text>
    <text class="lbl slate" x="150" y="516" font-size="11" text-anchor="middle">steers from the shell</text>
  </g>

  <!-- title -->
  <text class="lbl brass" x="30" y="46" font-size="26" letter-spacing="3">THE FRAME</text>
  <text class="lbl slate" x="32" y="70" font-size="13">one backbone, many ribs.</text>
  <text class="lbl slate" x="32" y="88" font-size="13">The harness ships; capabilities bolt on.</text>

  <!-- harness label with a bracket under the keel -->
  <path d="M 300 432 L 300 446 L 720 446 L 720 432" fill="none" stroke="#1e3a5f"
        stroke-width="1" stroke-opacity="0.5"/>
  <text class="lbl navy"  x="510" y="468" font-size="15" text-anchor="middle">THE HARNESS</text>
  <text class="lbl slate" x="510" y="486" font-size="12" text-anchor="middle">the part that ships, the same on every install</text>

  <!-- boundary rule -->
  <line x1="700" y1="516" x2="1000" y2="516" stroke="#b5803a" stroke-width="1.6"/>
  <text class="lbl navy"  x="700" y="536" font-size="14">The harness never imports a rib.</text>
  <text class="lbl slate" x="700" y="553" font-size="12">External systems are touched only inside ribs.</text>
</svg>
